<svg xmlns="http://www.w3.org/2000/svg" width="582" height="123">
 <!-- Created with Method Draw - http://github.com/duopixel/Method-Draw/ -->

 <g>


  <g display="none" overflow="visible" y="0" x="0" height="100%" width="100%" id="canvasGrid">
   <rect fill="url(#gridpattern)" stroke-width="0" y="1" x="1" height="121" width="580"/>
  </g>
 </g>
 <g>
  <title>Layer 1</title>
  <style transform="matrix(0.025082266165014966,0,0,0.025082266165014966,0,0) " type="text/css">
    .st0{fill:#3dcd58;}
	.st1{fill:#3dcd58;}
	.st2{fill:#3dcd58;}
  </style>
  <g stroke="null" id="svg_37">
   <g stroke="null" transform="matrix(2.042933077790422,0,0,2.042933077790422,-23330.29760681993,-16089.8605580414) " id="svg_5">
    <path stroke="null" id="svg_6" d="m11431.708281,7913.026546l-9.06,0l0,-15.87c0,-0.58 0,-1.46 -1,-1.46c-0.94,0 -0.94,0.81 -0.94,1.46l0,15.94c0,1.32 0.18,1.49 1.62,1.49l9.38,0c0.63,0 1.42,0 1.42,-0.79c0,-0.77 -0.79,-0.77 -1.42,-0.77" class="st0"/>
    <path stroke="null" id="svg_7" d="m11435.758281,7900.816546c-0.88,0 -0.88,0.74 -0.88,1.34l0,11.43c0,0.58 0,1.31 0.88,1.31c0.86,0 0.86,-0.73 0.86,-1.31l0,-11.43c0,-0.53 0,-1.34 -0.86,-1.34" class="st0"/>
    <path stroke="null" id="svg_8" d="m11435.758281,7896.206546c-0.62,0 -1.11,0.45 -1.11,1.02c0,0.57 0.5,1.03 1.11,1.03c0.6,0 1.11,-0.47 1.11,-1.03c0,-0.56 -0.5,-1.02 -1.11,-1.02" class="st0"/>
    <path stroke="null" id="svg_9" d="m11444.328281,7901.126546l-1.87,0l0,-1.18c0,-1.68 0.16,-2.79 2.26,-2.79c0.08,0 0.31,0.02 0.56,0.05c0.27,0.03 0.54,0.05 0.65,0.05c0.44,0 0.72,-0.36 0.72,-0.69c0,-0.02 0,-0.4 -0.4,-0.58c-0.32,-0.15 -1.24,-0.31 -2.06,-0.31c-0.61,0 -1.23,0.14 -1.77,0.4c-0.57,0.27 -1.01,0.67 -1.28,1.14c-0.18,0.31 -0.42,0.9 -0.42,2.5l0,1.41l-1.48,0c-0.27,0 -1.11,0 -1.11,0.58c0,0.61 0.78,0.61 1.11,0.61l1.48,0l0,11.26c0,0.58 0,1.31 0.88,1.31c0.86,0 0.86,-0.73 0.86,-1.31l0,-11.26l1.87,0c0.74,0 1.11,-0.21 1.11,-0.61c0,-0.58 -0.72,-0.58 -1.11,-0.58m-1.62,-3.04c-0.01,0.02 -0.02,0.04 -0.03,0.06c0.01,-0.02 0.02,-0.04 0.03,-0.06" class="st0"/>
    <path stroke="null" id="svg_10" d="m11458.388281,7906.926546c0,-0.07 -0.01,-1.62 -0.82,-3.14c-0.46,-0.86 -1.09,-1.55 -1.88,-2.04c-0.09,-0.05 -0.18,-0.09 -0.27,-0.14c-0.06,-0.03 -0.13,-0.07 -0.19,-0.1c-0.19,-0.1 -0.39,-0.18 -0.6,-0.26c-0.06,-0.02 -0.13,-0.04 -0.19,-0.06c-0.23,-0.07 -0.47,-0.14 -0.71,-0.19c-0.05,-0.01 -0.1,-0.02 -0.15,-0.03c-0.28,-0.05 -0.58,-0.09 -0.89,-0.11c-0.03,0 -0.06,0 -0.09,-0.01c-0.17,-0.01 -0.34,-0.03 -0.52,-0.03c-2.07,0 -3.77,0.67 -4.93,1.93c-1.12,1.23 -1.72,2.99 -1.72,5.11c0,2.05 0.56,3.78 1.62,5.01c0.56,0.65 1.26,1.15 2.07,1.49c0.86,0.36 1.85,0.54 2.95,0.54c2.54,0 4.03,-1.01 4.83,-1.86c0.91,-0.97 1.2,-1.99 1.2,-2.2c0,-0.35 -0.35,-0.74 -0.86,-0.74c-0.36,0 -0.68,0.23 -0.83,0.58c-0.5,1.18 -1.27,2.01 -2.28,2.47c-0.6,0.28 -1.28,0.42 -2.01,0.42c-1.55,0 -2.77,-0.53 -3.62,-1.56c-0.79,-0.96 -1.22,-2.32 -1.25,-3.96l9.51,0c0.88,0.01 1.63,0.01 1.63,-1.12m-11.1,-0.2c0.21,-1.71 1.45,-4.59 4.73,-4.59c4.07,0 4.42,3.45 4.54,4.59l-9.27,0z" class="st0"/>
    <path stroke="null" id="svg_11" d="m11467.298281,7895.686546c-0.97,0 -0.97,0.88 -0.97,1.46l0,16.28c0,0.62 0,1.46 1,1.46c0.94,0 0.94,-0.81 0.94,-1.46l0,-16.28c0,-0.65 0,-1.46 -0.97,-1.46" class="st0"/>
    <path stroke="null" id="svg_12" d="m11498.978281,7905.556546c0.63,0 0.98,-0.55 0.98,-0.99l0,-11.21l-2,0l0,11.21c0,0.46 0.37,0.99 1.02,0.99" class="st0"/>
    <path stroke="null" id="svg_13" d="m11480.588281,7907.906546c-0.12,-0.07 -0.25,-0.12 -0.38,-0.18c-0.04,-0.02 -0.09,-0.04 -0.13,-0.06c-0.95,-0.42 -2.08,-0.68 -3.18,-0.91c-1.07,-0.23 -2.08,-0.44 -2.83,-0.81c-0.84,-0.4 -1.23,-0.93 -1.23,-1.67c0,-1.48 1.76,-2.14 3.5,-2.14c1.8,0 3.19,0.71 3.61,1.86c0.25,0.7 0.45,0.81 0.83,0.81c0.79,0 0.8,-0.68 0.8,-0.69c0,-0.18 -0.14,-0.98 -0.83,-1.74c-0.41,-0.46 -0.95,-0.82 -1.6,-1.08c-0.8,-0.32 -1.78,-0.48 -2.9,-0.48c-1.95,0 -3.39,0.53 -4.27,1.57c-0.81,0.96 -0.85,2 -0.85,2.2c0,0.99 0.51,1.91 1.35,2.47c0.86,0.57 1.76,0.79 3.54,1.22c0.48,0.12 1.03,0.25 1.66,0.41l0.07,0.02c0.97,0.24 2.78,0.7 2.78,2.33c0,1.26 -1.22,2.53 -3.95,2.53c-1.98,0 -3.33,-0.76 -4.01,-2.25l-0.02,-0.04c-0.19,-0.42 -0.37,-0.82 -0.87,-0.82c-0.2,0 -0.41,0.07 -0.58,0.2c-0.18,0.14 -0.28,0.33 -0.28,0.54c0,0.77 0.64,1.84 1.52,2.55c0.43,0.35 0.9,0.6 1.45,0.79c0.73,0.24 1.6,0.36 2.66,0.36c2.24,0 3.89,-0.55 4.88,-1.62c0.88,-0.95 0.98,-2.04 0.98,-2.46c0.04,-1.3 -0.54,-2.25 -1.72,-2.91" class="st0"/>
    <path stroke="null" id="svg_14" d="m11521.498281,7902.246546c-0.63,-0.65 -1.82,-1.43 -3.89,-1.43c-2.72,0 -3.86,1.3 -4.68,2.26l0,-1c0,-0.39 0,-0.82 -0.25,-1.07c-0.03,-0.03 -0.07,-0.04 -0.1,-0.06c-0.01,-0.01 -0.02,-0.01 -0.03,-0.02c-0.13,-0.08 -0.28,-0.13 -0.48,-0.13c-0.88,0 -0.88,0.77 -0.88,1.34l0,11.43c0,0.63 0,1.34 0.88,1.34c0.2,0 0.35,-0.05 0.48,-0.13c0.01,-0.01 0.02,-0.01 0.03,-0.02c0.03,-0.02 0.07,-0.03 0.1,-0.06c0.25,-0.25 0.25,-0.69 0.25,-1.07l0,-4.87c0,-2.18 0.07,-3.29 0.5,-4.14c0.36,-0.71 0.95,-1.31 1.7,-1.74c0.71,-0.41 1.54,-0.64 2.33,-0.64c1.17,0 2.22,0.47 2.8,1.26c0.52,0.69 0.59,1.72 0.59,2.74l0,7.39c0,0.39 0,0.82 0.25,1.07c0.03,0.03 0.06,0.04 0.1,0.06c0.01,0.01 0.02,0.01 0.03,0.02c0.13,0.08 0.28,0.13 0.48,0.13c0.89,0 0.89,-0.74 0.89,-1.34l0,-7.75c0,-0.73 0,-2.42 -1.1,-3.57" class="st0"/>
    <path stroke="null" id="svg_15" d="m11501.748281,7895.446546l0,1.92c3.21,1.11 5.52,4.15 5.52,7.73c0,4.51 -3.67,8.19 -8.19,8.19c-4.51,0 -8.19,-3.67 -8.19,-8.19c0,-3.51 2.23,-6.5 5.33,-7.66l0,-1.94c-4.14,1.23 -7.17,5.07 -7.17,9.6c0,5.53 4.5,10.02 10.02,10.02c5.53,0 10.02,-4.5 10.02,-10.02c0.02,-4.6 -3.1,-8.48 -7.34,-9.65" class="st0"/>
    <path stroke="null" id="svg_16" d="m11574.668281,7897.546546c-3.34,-1.48 -5.33,-2.06 -7.31,-2.06c-2.08,0 -3.41,0.74 -3.41,1.89c0,3.47 11.76,2.49 11.76,10.51c0,4.42 -3.71,6.99 -8.87,6.99c-4.04,0 -6.03,-1.05 -8.33,-2.23l0,-4.96c3.31,2.19 5.33,2.97 7.88,2.97c2.21,0 3.41,-0.77 3.41,-2.12c0,-3.78 -11.76,-2.39 -11.76,-10.65c0,-3.98 3.44,-6.62 8.8,-6.62c2.59,0 4.92,0.54 7.82,1.79l0,4.49" class="st1"/>
    <path stroke="null" id="svg_17" d="m11591.138281,7913.826546c-1.96,0.71 -3.62,1.05 -5.27,1.05c-5.48,0 -9.02,-3.19 -9.02,-8.05c0,-4.77 3.68,-8.13 8.82,-8.13c1.59,0 3.62,0.41 5.24,1.01l0,3.65c-1.28,-0.68 -2.77,-1.06 -3.99,-1.06c-2.94,0 -4.83,1.77 -4.83,4.49c0,2.77 1.86,4.59 4.66,4.59c1.18,0 2.23,-0.27 4.4,-1.08l0,3.53" class="st1"/>
    <path stroke="null" id="svg_18" d="m11636.898281,7898.706546c-4.81,0 -8.23,3.4 -8.23,8.17c0,4.81 3.56,8 9.04,8c1.21,0 4.15,0 6.95,-2.07l0,-3.05c-2.29,1.63 -3.81,2.2 -5.77,2.2c-3.09,0 -4.98,-1.6 -5.15,-4.33l11.19,0c0.24,-5.69 -3.5,-8.92 -8.03,-8.92m-3.05,6.34c0.2,-2.17 1.46,-3.42 3.38,-3.42c1.9,0 3.18,1.29 3.38,3.42l-6.76,0z" class="st1"/>
    <rect stroke="null" id="svg_19" height="15.6" width="4.89" class="st1" y="7898.996546" x="11646.838281"/>
    <path stroke="null" id="svg_20" d="m11665.348281,7891.556546l0,8.13c-1.32,-0.64 -2.64,-0.98 -4.06,-0.98c-4.46,0 -7.55,3.3 -7.55,8.07c0,4.67 3.09,8.11 7.28,8.11c1.66,0 2.94,-0.44 4.34,-1.55l0,1.26l4.89,0l0,-23.04l-4.9,0m0,18.78c-1.02,0.92 -1.87,1.29 -2.91,1.29c-2.3,0 -3.76,-1.9 -3.76,-4.74c0,-3.12 1.46,-4.91 3.92,-4.91c0.88,0 2.04,0.41 2.75,0.92l0,7.44z" class="st1"/>
    <path stroke="null" id="svg_21" d="m11680.528281,7898.706546c-4.81,0 -8.22,3.4 -8.22,8.17c0,4.81 3.56,8 9.04,8c1.21,0 4.16,0 6.96,-2.07l0,-3.05c-2.29,1.63 -3.81,2.2 -5.78,2.2c-3.07,0 -4.97,-1.6 -5.14,-4.33l11.19,0c0.22,-5.69 -3.52,-8.92 -8.05,-8.92m-3.04,6.34c0.2,-2.17 1.45,-3.42 3.38,-3.42c1.9,0 3.19,1.29 3.39,3.42l-6.77,0z" class="st1"/>
    <path stroke="null" id="svg_22" d="m11695.898281,7903.466546l0.07,0c1.45,-3.25 3.08,-4.77 4.97,-4.77c0.98,0 1.82,0.37 3.24,1.42l-1.35,4.32c-1.29,-0.81 -2.13,-1.15 -2.91,-1.15c-1.79,0 -2.95,1.69 -4.03,4.55l0,6.73l-4.9,0l0,-15.6l4.9,0l0,4.5" class="st1"/>
    <path stroke="null" id="svg_23" d="m11651.958281,7892.436546c0.46,1.21 -0.37,2.9 -1.84,3.77c-1.48,0.87 -3.04,0.59 -3.5,-0.62c-0.46,-1.21 0.36,-2.91 1.84,-3.77c1.47,-0.87 3.04,-0.6 3.5,0.62" class="st1"/>
    <path stroke="null" id="svg_24" d="m11608.768281,7904.666546c0,-4.23 -2.87,-5.96 -5.71,-5.96c-1.93,0 -3.51,0.81 -4.93,2.61l-0.07,0l0,-9.77l-4.9,0l0,23l4.9,0l0,-9.88c1.15,-1.66 2.13,-2.37 3.27,-2.37c1.52,0 2.54,1.08 2.54,3.41l0,5.48c1.64,-0.84 3.31,-1.36 4.9,-1.55l0,-4.97" class="st1"/>
    <path stroke="null" id="svg_25" d="m11621.058281,7898.706546c-1.99,0 -3.52,0.74 -5.08,2.52l0,-2.23l-4.9,0l0,10.6c1.7,0.17 3.86,0.95 4.9,2.23l0,-7.28c1.29,-1.93 2.2,-2.58 3.42,-2.58c1.39,0 2.44,0.92 2.44,3.12l0,9.47l4.9,0l0,-9.88c0,-4.59 -3.25,-5.97 -5.68,-5.97" class="st1"/>
    <polygon stroke="null" id="svg_26" points="11629.4384765625,7919.051992297173 11623.748046875,7919.051992297173 11623.748046875,7923.092031359673 11629.23828125,7923.092031359673 11629.23828125,7924.831777453423 11623.748046875,7924.831777453423 11623.748046875,7929.001699328423 11629.6083984375,7929.001699328423 11629.6083984375,7930.731679797173 11621.837890625,7930.731679797173 11621.837890625,7917.322011828423 11629.4384765625,7917.322011828423 " class="st1"/>
    <rect stroke="null" id="svg_27" height="13.43" width="1.74" class="st1" y="7917.296546" x="11634.088281"/>
    <path stroke="null" id="svg_28" d="m11642.048281,7926.556546l6.21,0c0,-3.27 -1.5,-4.85 -3.84,-4.85c-2.43,0 -4.12,1.8 -4.12,4.48c0,2.45 1.52,4.71 4.27,4.71c1.5,0 2.46,-0.33 3.53,-1.04l0,-1.7c-1.04,0.68 -2.04,1.07 -3.09,1.07c-1.68,-0.01 -2.69,-0.91 -2.96,-2.67m2.41,-3.35c1.24,0 2,0.85 2.06,2.19l-4.44,0c0.24,-1.4 1.05,-2.19 2.38,-2.19" class="st1"/>
    <path stroke="null" id="svg_29" d="m11659.648281,7924.196546c-1,-0.69 -1.67,-0.89 -2.43,-0.89c-1.6,0 -2.7,1.22 -2.7,3.02c0,1.82 1.18,2.93 2.99,2.93c0.75,0 1.46,-0.19 2.34,-0.59l0,1.72c-0.59,0.28 -1.71,0.51 -2.63,0.51c-2.64,0 -4.47,-1.82 -4.47,-4.41c0,-2.93 1.67,-4.77 4.35,-4.77c1.02,0 1.71,0.24 2.56,0.61l0,1.87" class="st1"/>
    <path stroke="null" id="svg_30" d="m11667.588281,7921.876546l2.8,0l0,1.57l-2.8,0l0,4.54c0,1.04 0.75,1.34 1.26,1.34c0.63,0 1.28,-0.22 1.99,-0.66l0,1.64c-0.61,0.34 -1.55,0.59 -2.13,0.59c-1.9,0 -2.86,-1.18 -2.86,-2.77l0,-4.67l-1.54,0l0,-0.2l3.28,-3.2l0,1.82" class="st1"/>
    <path stroke="null" id="svg_31" d="m11677.048281,7921.876546l0,2.05l0.04,0c0.89,-1.57 1.73,-2.22 2.56,-2.22c0.71,0 1.37,0.33 2.1,1.02l-0.92,1.54c-0.53,-0.52 -1.22,-0.89 -1.63,-0.89c-1.2,0 -2.14,1.22 -2.14,2.73l0,4.62l-1.74,0l0,-8.85l1.73,0" class="st1"/>
    <path stroke="null" id="svg_32" d="m11699.608281,7924.196546c-1.01,-0.69 -1.68,-0.89 -2.44,-0.89c-1.59,0 -2.69,1.22 -2.69,3.02c0,1.82 1.18,2.93 2.98,2.93c0.75,0 1.46,-0.19 2.35,-0.59l0,1.72c-0.6,0.28 -1.72,0.51 -2.64,0.51c-2.63,0 -4.47,-1.82 -4.47,-4.41c0,-2.93 1.68,-4.77 4.36,-4.77c1.02,0 1.71,0.24 2.56,0.61l0,1.87" class="st1"/>
    <rect stroke="null" id="svg_33" height="8.85" width="1.74" class="st1" y="7921.876546" x="11686.368281"/>
    <path stroke="null" id="svg_34" d="m11688.168281,7918.696546c0.17,0.43 -0.13,1.03 -0.65,1.34c-0.53,0.31 -1.09,0.21 -1.25,-0.22c-0.16,-0.43 0.13,-1.03 0.66,-1.34c0.53,-0.31 1.08,-0.21 1.24,0.22" class="st1"/>
    <path stroke="null" id="svg_35" d="m11611.218281,7923.026546l0.53,-1.92l4.82,0c0.59,-2.78 0.13,-5.36 -1.56,-7.05c-3.42,-3.41 -10.56,-2.25 -15.89,2.84c-0.83,0.79 -1.53,1.65 -2.17,2.52l2.9,0l-0.67,1.92l-3.46,0c-0.33,0.61 -0.64,1.21 -0.88,1.82l4.11,0l-0.66,1.92l-4.04,0c-0.69,2.94 -0.25,5.68 1.49,7.41c3.37,3.37 10.5,2.19 15.82,-2.91c0.93,-0.89 1.7,-1.84 2.39,-2.82l-3.72,0l0.57,-1.92l4.35,0c0.32,-0.61 0.61,-1.21 0.84,-1.82l-4.77,0m-1.07,-3.6c-0.31,0 -0.44,0.05 -0.56,0.19c-0.05,0.06 -0.07,0.11 -0.09,0.22l-1.56,5.93c-0.37,2.08 -2.92,4.16 -6.25,4.16l-1.81,0l-2.81,0l0.8,-3.05l2.97,0c0.3,0 0.54,-0.11 0.74,-0.33c0.07,-0.09 0.17,-0.22 0.18,-0.36l1.23,-5.18c0.36,-2.08 2.56,-4.38 5.89,-4.38l4.74,0l-0.61,2.8l-2.86,0z" class="st1"/>
    <rect stroke="null" id="svg_36" height="58.63" width="1.01" class="st2" y="7876.406546" x="11539.868281"/>
   </g>
  </g>
 </g>
</svg>
